<svg xmlns="http://www.w3.org/2000/svg" version="1.1" xmlns:xlink="http://www.w3.org/1999/xlink" xmlns:svgjs="http://svgjs.dev/svgjs" width="1000" height="297" viewBox="0 0 1000 297"><g transform="matrix(1,0,0,1,-0.6060606060606233,0.24281672408019972)"><svg viewBox="0 0 396 118" data-background-color="#ffffff" preserveAspectRatio="xMidYMid meet" height="297" width="1000" xmlns="http://www.w3.org/2000/svg" xmlns:xlink="http://www.w3.org/1999/xlink"><g id="tight-bounds" transform="matrix(1,0,0,1,0.2400000000000091,-0.09647263785004156)"><svg viewBox="0 0 395.52 118.1929452757001" height="118.1929452757001" width="395.52"><g><svg viewBox="0 0 397.49759999999986 118.78391000207857" height="118.1929452757001" width="395.52"><g><rect width="397.49759999999986" height="3.3978996608198657" x="0" y="60.96692142069038" fill="#000000" opacity="1" stroke-width="0" stroke="transparent" fill-opacity="1" class="rect-o-0" data-fill-palette-color="primary" rx="1%" id="o-0" data-palette-color="#000000"></rect></g><g><rect width="397.49759999999986" height="3.3978996608198657" x="0" y="68.81233372656241" fill="#000000" opacity="1" stroke-width="0" stroke="transparent" fill-opacity="1" class="rect-o-1" data-fill-palette-color="primary" rx="1%" id="o-1" data-palette-color="#000000"></rect></g><g transform="matrix(1,0,0,1,0.9887999999999693,81.10525867748663)"><svg viewBox="0 0 395.5199999999999 37.67865132459191" height="37.67865132459191" width="395.5199999999999"><g id="textblocktransform"><svg viewBox="0 0 395.5199999999999 37.67865132459191" height="37.67865132459191" width="395.5199999999999" id="textblock"><g><svg viewBox="0 0 395.5199999999999 37.67865132459191" height="37.67865132459191" width="395.5199999999999"><g transform="matrix(1,0,0,1,0,0)"><svg width="395.5199999999999" viewBox="2.8499999046325684 -35.099998474121094 373.66998291015625 35.599998474121094" height="37.67865132459191" data-palette-color="#000000"><path d="M6.8-17.15Q6.8-9.55 8.8-6.23 10.8-2.9 16.53-2.9 22.25-2.9 24.23-6.15 26.2-9.4 26.2-17.05 26.2-24.7 24.15-28.2 22.1-31.7 16.48-31.7 10.85-31.7 8.83-28.23 6.8-24.75 6.8-17.15ZM30.2-17.05Q30.2-7.8 27.25-3.65 24.3 0.5 16.53 0.5 8.75 0.5 5.8-3.75 2.85-8 2.85-17.13 2.85-26.25 5.85-30.68 8.85-35.1 16.5-35.1 24.15-35.1 27.18-30.7 30.2-26.3 30.2-17.05ZM41.1 0L37.25 0 37.25-34.6 44.2-34.6 54-5.35 63.8-34.6 70.75-34.6 70.75 0 66.9 0 66.9-30.5 66.2-30.5 56.15-1.25 51.85-1.25 41.8-30.5 41.1-30.5 41.1 0ZM80 0L76.2 0 85.7-34.6 94.09-34.6 103.59 0 99.8 0 97.3-8.9 82.5-8.9 80 0ZM91.2-31.3L88.59-31.3 83.34-12.35 96.45-12.35 91.2-31.3ZM122.69-13.25L112.89-13.25 112.89 0 109.04 0 109.04-34.6 121.84-34.6Q127.34-34.6 130.12-32.05 132.89-29.5 132.89-24.1L132.89-24.1Q132.89-16.1 126.54-14.05L126.54-14.05 133.19 0 128.94 0 122.69-13.25ZM112.89-16.65L121.89-16.65Q128.94-16.65 128.94-23.93 128.94-31.2 121.84-31.2L121.84-31.2 112.89-31.2 112.89-16.65ZM151.59 0L147.79 0 157.29-34.6 165.69-34.6 175.19 0 171.39 0 168.89-8.9 154.09-8.9 151.59 0ZM162.79-31.3L160.19-31.3 154.94-12.35 168.04-12.35 162.79-31.3ZM199.69-3.45L199.69 0 180.64 0 180.64-34.6 184.49-34.6 184.49-3.45 199.69-3.45ZM215.23-12L200.08-12 200.08-15.5 215.23-15.5 215.23-12ZM248.08 0L244.28 0 244.28-15.65 226.68-15.65 226.68 0 222.83 0 222.83-34.6 226.68-34.6 226.68-19.1 244.28-19.1 244.28-34.6 248.08-34.6 248.08 0ZM257.33 0L253.53 0 263.03-34.6 271.43-34.6 280.93 0 277.13 0 274.63-8.9 259.83-8.9 257.33 0ZM268.53-31.3L265.93-31.3 260.68-12.35 273.78-12.35 268.53-31.3ZM290.23 0L286.38 0 286.38-34.6 293.33-34.6 303.13-5.35 312.93-34.6 319.88-34.6 319.88 0 316.03 0 316.03-30.5 315.33-30.5 305.28-1.25 300.98-1.25 290.93-30.5 290.23-30.5 290.23 0ZM332.67 0L325.62-34.6 329.62-34.6 335.52-3.4 336.97-3.4 344.02-34.3 348.52-34.3 355.57-3.4 357.02-3.4 362.92-34.6 366.87-34.6 359.87 0 352.82 0 346.27-29.55 339.72 0 332.67 0ZM376.52 0L372.67 0 372.67-34.6 376.52-34.6 376.52 0Z" opacity="1" transform="matrix(1,0,0,1,0,0)" fill="#000000" class="wordmark-text-0" data-fill-palette-color="primary" id="text-0"></path></svg></g></svg></g></svg></g></svg></g><g transform="matrix(1,0,0,1,163.433201874147,0)"><svg viewBox="0 0 70.6311962517059 52.071896130586026" height="52.071896130586026" width="70.6311962517059"><g><svg xmlns="http://www.w3.org/2000/svg" xmlns:xlink="http://www.w3.org/1999/xlink" version="1.1" x="0" y="0" viewBox="9.307999610900879 20 81.385009765625 60" enable-background="new 0 0 100 100" xml:space="preserve" height="52.071896130586026" width="70.6311962517059" class="icon-icon-0" data-fill-palette-color="accent" id="icon-0"><g fill="#000000" data-fill-palette-color="accent"><g fill="#000000" data-fill-palette-color="accent"><g fill="#000000" data-fill-palette-color="accent"><g fill="#000000" data-fill-palette-color="accent"><path d="M35.194 73.077H15.575c-3.455 0-6.267-2.812-6.267-6.269V26.267c0-3.455 2.812-6.267 6.267-6.267h55.233c3.455 0 6.267 2.812 6.267 6.267v2.656l-1.959 1.473v-4.129c0-2.376-1.932-4.308-4.308-4.308H15.575c-2.376 0-4.308 1.932-4.308 4.308v40.541c0 2.376 1.932 4.31 4.308 4.31h20.209L35.194 73.077zM48.633 71.118h22.175c2.376 0 4.308-1.934 4.308-4.31V44.593l1.959-1.551v23.766c0 3.457-2.812 6.269-6.267 6.269H47.126L48.633 71.118z" fill="#000000" data-fill-palette-color="accent"></path></g><g fill="#000000" data-fill-palette-color="accent"><path d="M24.658 36.495l-7.613-3.334c-0.993-0.427-1.112-0.945-1.112-1.49 0-0.756 0.545-1.276 1.301-1.276 0.331 0 0.71 0.048 1.301 0.331l9.622 4.421c0.497 0.237 0.874 0.758 0.874 1.349 0 0.591-0.377 1.11-0.874 1.347l-9.622 4.421c-0.591 0.285-0.97 0.331-1.301 0.331-0.756 0-1.301-0.52-1.301-1.276 0-0.543 0.119-1.064 1.112-1.49L24.658 36.495z" fill="#000000" data-fill-palette-color="accent"></path></g></g><g fill="#000000" data-fill-palette-color="accent"><g fill="#000000" data-fill-palette-color="accent"><path d="M76.884 43.505c-0.53 0-1.027-0.207-1.4-0.58l-5.62-5.622c-0.373-0.371-0.58-0.868-0.581-1.396 0-0.53 0.206-1.029 0.581-1.404l11.826-11.826c0.754-0.752 2.055-0.744 2.801 0l5.62 5.62c0.375 0.373 0.582 0.87 0.582 1.4 0 0.53-0.207 1.027-0.583 1.402L78.284 42.925C77.907 43.3 77.412 43.505 76.884 43.505zM83.105 24.061L71.248 35.887l5.636 5.658c0.01 0 0.013-0.004 0.017-0.008l11.824-11.826L83.105 24.061z" fill="#000000" data-fill-palette-color="accent"></path></g><g fill="#000000" data-fill-palette-color="accent"><path d="M34.5 80c-0.54 0-1.035-0.241-1.358-0.658-0.329-0.425-0.436-0.983-0.293-1.528l2.078-8.015c0.088-0.327 0.26-0.622 0.499-0.857l41.138-41.138c0.668-0.671 1.819-0.712 2.451-0.078l6.047 6.047c0.652 0.652 0.62 1.752-0.075 2.45L43.841 77.368c-0.235 0.235-0.528 0.404-0.849 0.49l-8.019 2.081C34.816 79.979 34.657 80 34.5 80zM77.796 29.276L36.805 70.332l-1.968 7.617 7.658-1.988L83.48 34.959 77.796 29.276z" fill="#000000" data-fill-palette-color="accent"></path></g></g><path d="M39.376 73.46c-0.251 0-0.501-0.096-0.693-0.287-0.383-0.383-0.383-1.002 0-1.385l41.504-41.505c0.383-0.383 1.002-0.383 1.385 0 0.383 0.383 0.383 1.002 0 1.385L40.069 73.173C39.878 73.364 39.627 73.46 39.376 73.46z" fill="#000000" data-fill-palette-color="accent"></path></g></g></svg></g></svg></g><g></g></svg></g><defs></defs></svg><rect width="395.52" height="118.1929452757001" fill="none" stroke="none" visibility="hidden"></rect></g></svg></g></svg>